<?xml version="1.0" encoding="utf-8"?>
<!-- Generator: Adobe Illustrator 21.0.2, SVG Export Plug-In . SVG Version: 6.00 Build 0)  -->
<svg version="1.1" id="Layer_1" xmlns="http://www.w3.org/2000/svg" xmlns:xlink="http://www.w3.org/1999/xlink" x="0px" y="0px"
	 viewBox="0 0 1190.6 842" style="enable-background:new 0 0 1190.6 842;" xml:space="preserve">
<style type="text/css">
	.st0{display:none;}
	.st1{display:inline;fill:#CCCCCC;}
	.st2{fill:none;stroke:#FFFFFF;stroke-width:6;stroke-miterlimit:10;}
	.st3{fill:none;stroke:#232323;stroke-width:0.5;stroke-miterlimit:10;}
	.st4{stroke:#8E8E8E;stroke-width:0.25;stroke-miterlimit:10;}
	.st5{fill:none;stroke:#FFFFFF;stroke-width:4.25;stroke-miterlimit:10;}
	.st6{fill:none;stroke:#8E8E8E;stroke-width:0.5;stroke-miterlimit:10;}
	.st7{fill:none;stroke:#8E8E8E;stroke-width:0.25;stroke-miterlimit:10;}
	.st8{fill:#FFFFFF;stroke:#161616;stroke-width:0.5;stroke-miterlimit:10;}
	.st9{fill:#FFFFFF;stroke:#666666;stroke-width:0.5;stroke-miterlimit:10;}
</style>
<g id="background" class="st0">
	<rect x="-1" class="st1" width="1190.6" height="842"/>
</g>
<g id="Layer_1_1_">
	<g id="Layer_x0020_1">
		<g id="logo-outline">
			<g id="outer-line">
				<path id="outer-out-linefill" class="st2" d="M312.9,404.5c0,155.1,126.6,281.8,281.5,281.8s281.5-126.7,281.5-281.8
					S749.4,122.8,594.4,122.8S312.9,249.4,312.9,404.5L312.9,404.5z"/>
				<path id="outer-out-line" class="st3" d="M309.8,404.6c0,156.8,128,284.9,284.7,284.9s284.7-128.1,284.7-284.9
					s-128-284.9-284.7-284.9S309.8,247.7,309.8,404.6L309.8,404.6z"/>
				<path id="outer-in-line" class="st4" d="M315.8,404.6c0,153.3,125.2,278.6,278.6,278.6S873,557.9,873,404.6
					C873,251.2,747.7,126,594.4,126S315.8,251.2,315.8,404.6L315.8,404.6z"/>
			</g>
			<g id="inner-line">
				<path id="inner-out-linefill" class="st5" d="M378.6,404.5c0-120.3,98.1-218.4,218.2-218.4C717,186.1,815,284.2,815,404.5
					c0,120.2-98.1,218.4-218.3,218.4C476.6,622.9,378.6,524.7,378.6,404.5L378.6,404.5z"/>
				<path id="inner-out-line" class="st6" d="M376.3,404.4c0-121.5,99.1-220.5,220.5-220.5c121.5,0,220.6,99,220.6,220.5
					c0,121.4-99.1,220.5-220.6,220.5C475.4,624.9,376.3,525.8,376.3,404.4L376.3,404.4z"/>
				<path id="inner-in-line" class="st7" d="M380.6,404.5c0,119.1,97.1,216.2,216.1,216.2c119.1,0,216.2-97,216.2-216.2
					c0-119-97.1-216.2-216.2-216.2C477.7,188.4,380.6,285.5,380.6,404.5L380.6,404.5z"/>
			</g>
			<g id="inner-text">
				<path id="inner-text-1" class="st8" d="M543.7,281.7l0.7,21.9h-2.7c-0.5-3.9-1.3-6.9-2.1-8.5c-1.3-2.7-3.5-4.7-5.8-6
					c-2.4-1.3-5.8-2-9.6-2h-13.5v74.1c0,6.1,0.7,10.3,1.9,11.7c1.7,2,4.5,3.1,8.2,3.1h3.4v2h-40.4v-2h3.4c4,0,6.9-1.4,8.5-3.9
					c1-1.5,1.6-5.2,1.6-10.9v-74.1h-11.5c-4.3,0-7.6,0.4-9.4,1c-2.4,0.8-4.7,2.7-6.3,5.1c-1.6,2.4-2.8,6.1-3.1,10.4h-2.6l0.7-21.9
					L543.7,281.7L543.7,281.7z M591.5,324.9l35.3,34.5c7.3,7.1,16.5,15.7,27.3,16.6v2h-45.8v-2c3.1,0,7.7-1.9,7.7-5.7
					c0-1-0.3-2.2-0.7-2.9c-5.3-10.6-28.3-28.3-37.4-37.1v31c0,5,0.3,8.5,0.8,9.9c0.4,1.2,1.5,2.4,2.9,3.2c1.9,1.1,4.2,1.7,6.4,1.7
					h3.3v2H551v-2h3.3c3.9,0,6.8-1.2,8.5-3.5c1.1-1.4,1.7-5.4,1.7-11.3v-62.6c0-5-0.4-8.3-0.9-9.9c-0.4-1.1-1.4-2.4-2.9-3.1
					c-1.9-1.2-4.3-1.8-6.4-1.8H551v-2h40.4v2h-3.3c-2.1,0-4.5,0.6-6.4,1.7c-1.3,0.7-2.5,2.1-2.9,3.5s-0.8,4.9-0.8,9.6v30
					c0.8-0.8,4.1-4,9.6-8.9c13.9-12.7,22.6-21.3,25.3-25.5c1.3-2,1.9-4,1.9-5.6c0-1.2-0.5-2.4-1.4-3.3s-2.8-1.4-5-1.4H606v-2h35.4v2
					c-2,0-4,0.4-5.6,0.9c-1.7,0.5-3.9,1.9-6.2,3.5c-2.4,1.7-5.5,4.6-9.1,8.2c-0.9,0.9-5.8,5.8-14.4,14.2L591.5,324.9L591.5,324.9z
					 M705.9,279.7c12.4,0,23.1,4.8,32.2,14.2c9.1,9.4,13.6,21.3,13.6,35.4c0,14.5-4.6,26.7-13.7,36.2c-9.1,9.6-20.4,14.5-33.3,14.5
					c-13.1,0-24.2-4.8-33.1-14.1c-8.8-9.3-13.5-21.5-13.5-36.4c0-15.1,5.2-27.8,15.5-37.3C682.5,283.9,693.4,279.7,705.9,279.7
					L705.9,279.7L705.9,279.7z M704.6,284.4c-8.6,0-15.5,3.4-20.6,9.7c-6.3,7.9-9.6,19.7-9.6,35.1c0,15.7,3.4,28,9.9,36.4
					c5,6.4,12,9.7,20.3,9.7c8.9,0,16.4-3.6,22.2-10.6c5.8-7.1,8.8-18.3,8.8-33.5c0-16.5-3.3-29-9.7-37
					C720.9,287.7,713.7,284.4,704.6,284.4L704.6,284.4z"/>
				<path id="inner-text-4" class="st8" d="M665.9,413c-4.9,3.7-9.9,8-14.8,12c-1.2,1-8.1,5.8-10.5,8.2c-0.6,0.6-0.6,1.5,0,2l0,0
					c0.1,0.1,0.1,0.2,0.2,0.2c1.6,2.4,2.7,0.4,4.6-0.7c0.1,0,0.1-0.1,0.2-0.1c5.2-2.3,10.1-2.3,12,4.5c1.1,3,1.6,6.5,1.9,9.6
					c0,0.1,0,0.1,0,0.2c1.2,5,2,10,2.7,15c1.1,6.6,1,14.6,1.2,21.4c0.1,2.7,0,23.9,0.5,29.9c0.1,0.9,0.9,1.4,1.7,1.2
					c1.4-0.4,1.2-0.1,2.4-1.8c0-0.1,0.8-1.2,0.9-1.3c3.6-23.4,9.2-34.9,18.3-54.7c3.3-7.8,7.6-15.7,12.1-22.9c0,0,0-0.1,0.1-0.1
					c5.4-7.4,13.8-18.5,24.2-17.9c0.2,0,0.4,0.1,0.6,0.2c3.3,1.7,4.6,4.2,6.1,7c0.2,0.4,0.2,1-0.1,1.4
					c-31.9,46.6-65.8,92.4-97.3,139.2c-0.3,0.4-0.3,0.9-0.1,1.3l1.9,4.2c0.1,0.1,0.1,0.3,0.2,0.4l3.3,3.6c0.1,0.1,0.2,0.2,0.3,0.2
					l4.3,2.7c0.1,0.1,0.2,0.1,0.3,0.1l5.3,1.7c0.1,0,0.1,0,0.2,0c11.4,2,25.2,0.8,35.2-5.2c5.3-3.5,9.8-8.2,9.8-15l0.3-1.2
					c-4.8,3.7-9.9,7-15.3,9.6c-0.1,0-0.1,0-0.2,0.1c-11.5,4.1-24.8,6.6-36.4,1.3c-0.1,0-0.2-0.1-0.3-0.2L639,567
					c-0.2-0.1-0.3-0.3-0.4-0.5l-1.3-2.7c-0.2-0.4-0.2-1,0.1-1.4c30.3-42.9,59.9-86.3,89.7-129.2l12.1-17.3l4.1-6
					c0.3-0.4,0.3-1,0-1.5c-0.9-1.6-1.6-3.3-2.4-4.8c-4.3-7.7-12.4-4.2-18.6-0.5c-0.1,0-0.1,0.1-0.2,0.1c-19,15.7-32,37.2-42.9,59.2
					c-0.6,1.3-2.5,0.9-2.6-0.6c-0.2-5.2-0.5-10.5-0.6-15.5c0-0.1,0-0.1,0-0.2c-1-6.9-2.2-13.7-3.6-20.5c0-0.1-0.1-0.2-0.1-0.4
					c-1-1.9-1.7-4.2-2.3-6.3c0-0.1-0.1-0.3-0.2-0.4C668.4,417.1,667,414.8,665.9,413L665.9,413z"/>
				<path id="inner-text-3" class="st8" d="M624.4,450.4l1.7-10.4l1.6-10.2l1.7-10.4c1.4-8.6,2.9-18,4.5-26.6l1.2-6.3l0.8-6.4
					l0.8-6.7l0.3-6.6c0-6.6-0.4-12.4-1.7-18.9c-10.5,7.4-21.6,14.7-32.7,21.2c0.6,1,1.9,2.4,2.9,3.1c2.2-1.2,5.2-2.7,7.3-3.7
					c2.6-1.3,4.9-0.3,6.6,1.8l-0.8,6.5c-4.6,45.5-9.6,91.7-14.3,137.2c-0.3,4.3-1.2,6.1,1,9.7c3.3,5.3,7.3,4.8,12.7,2.9
					c9.6-6,17.8-14.1,24.7-23.1c-1-0.2-3.1-1.7-3.7-2.4c-3.3,4.1-10.9,14.2-17.1,11.9c-4.2-3.8-3.9-8.3-3.9-13.8
					c0.8-9.4,2.3-18.5,3.3-27.9l1.5-10.4L624.4,450.4L624.4,450.4z"/>
				<g id="inner-text-2">
					<path id="inner-text-2.3" class="st8" d="M539.9,412.9c-1.9-2.6-3.6-4.1-7.2-4.1c-4.5-0.5-7.9,5-8.5,8.5
						c0.9,4.3,4.5,6.4,8.9,5.4C538.1,421.8,539.9,417.1,539.9,412.9L539.9,412.9z"/>
					<path id="inner-text-2.2" class="st8" d="M568.7,405.9c-1.1-1.8-2.3-3.1-4.5-3.6c-4.5-1-8.2,1.3-10.2,5.4
						c-1.4,7.2,2.2,9.4,9.4,7.9C567.7,412.9,568.7,410.7,568.7,405.9z"/>
					<path id="inner-text-2.1" class="st8" d="M585.3,515.1c-2,1.7-4.5,3.5-6.4,5.2c-3.3,1.9-7.6,4.5-9.8,0
						c-1.2-7.3,1.1-15.1,2.1-22.4c0.7-4.3,1.5-8.7,2.5-12.9c-5.5,2.9-10,5.6-16,7.3c1.5-3.4,3.5-7.1,4.6-10.4
						c2.2-7.8,2.8-14.5-0.3-22.3c-2.7-4-3.9-4.5-8.1-7c-0.2,6.5-0.6,13-1.2,19.5c-1,6.5-2.7,12.6-4.2,18.9
						c-2.6,6.4-5.6,13.3-8.7,19.4c-4,7.6-8.9,14.6-14.1,21.4c-3.8,3.5-6.6,5.8-11.2,8.3c-10.4,2.3-11.9-6.2-13.6-13.9
						c-0.6-18.7,5-29.9,14.8-44.7l5.4-7.3l6.1-6.7l6.6-6l7.3-5.4l7.7-4.5l8.4-4l9.3-3.3l10.3-2.7c6.1-1.2,12.2-2.3,18.4-2.9
						c0.8-3.7,2-6.4,1.3-10.4c-3.3-3-9.4-0.3-13,0.8c-19.4,6.4-37.6,16.7-53.6,29.5c-8.7,8.3-16.9,16.9-24.2,26.4
						c-4.6,7.2-8.7,14.3-12.4,22c-5,12.6-8.8,30.7-1.1,43.3c6.5,6.5,12.3,2.3,18.9-0.6l7.9-5.6l7.7-7.2c11.3-12.6,21-25.9,29.5-40.8
						c-3.2,14.1-6.4,30.6-3.5,45c13.2-5.6,25.6-13.6,35.9-23.7C587.9,517.3,585.8,515.9,585.3,515.1L585.3,515.1z"/>
				</g>
			</g>
			<path id="outer-text" class="st9" d="M637.5,155.7c1.3-5.2,10.6-7,15.2-6.9l0.1,3.7c-3.2-0.2-10.3,0.3-11,4.3
				c-0.7,3.3,7.2,7.4,8.2,11c1.1,4-2.6,7.9-5.8,9.3c-2.4,1-6,1.7-10.1,1.8l-0.3-3.5c2.9,0.1,10.9-0.8,11.7-4.2
				C646.6,165.9,635.8,162.6,637.5,155.7L637.5,155.7z M659.8,150.9c6.6,2.4,14.4,4.3,21.3,5.8c1.9,0.3,3.8,0.8,5,1
				c3.6,0.8,2.9,0.1,1.9,4.4c-4.2-1.4-8.4-2.7-12.5-3.7c-1.9,9.3-4.8,18.5-6.3,27.9l-4.8-1.2c2.7-9.1,5-18.5,7.2-27.7
				c-5.8-1.4-10.1-2.4-12.8-2.7L659.8,150.9L659.8,150.9z M699.4,164.4l3.6,1.8c-3.1,6.2-12.9,21.5-6.6,27.9
				c4.8,4.8,12.3,4,15.7-1.8c3.4-5.6,6.4-12.4,8.9-18.5l4,1.9c-3.3,7.1-8.4,20.8-15.5,24.2c-3,1.5-8.1,1.2-11.2-0.2
				C683.1,192.5,694.7,174.4,699.4,164.4z M739.9,186.1c6.6,4.9,22.5,17.1,15.6,26.5c-7.2,9.8-25,5.7-33.5-0.4
				c-0.2-0.2-0.7-0.4-0.8-0.5C727.4,203.4,733.5,194.1,739.9,186.1z M741.3,191.4L727.1,211c6.5,4.5,19.8,6.6,24.8-1
				C756.1,203.6,745.9,194.4,741.3,191.4L741.3,191.4z M775.5,213.1c4,4.1,7.5,7.4,10.3,9.9l-2.5,2.6c-2.1-2.4-5-5.1-7.2-7.6
				l-8.4,7.6c2.6,2.8,4.9,4.9,6.3,6.3l-2.7,2.5c-1.7-2.2-4-4.6-5.9-6.8l-7.9,7.2c2.2,2.4,5.2,5.5,7.3,8.1l-2.7,2.7
				c-2-2.2-5.5-6-10.2-11.3c1.1-0.9,2.8-2.4,4.7-4.2c4.9-4.4,10.3-9.3,15.2-13.6C773,215.4,774.4,214.1,775.5,213.1L775.5,213.1z
				 M795.1,231.5L795.1,231.5l-2.5,35.8l17.9-15.7l2.5,3.1c-1.3,1.3-3.2,2.7-5,4.2c-6.4,5.4-13.4,11.1-19.9,16.5
				c0.6-9,1.5-17.9,1.8-26.8c0.1-2.5,0.8-6.5,0.8-9.1l-19.3,16.9l-2.7-3.5L795.1,231.5L795.1,231.5z M818,265.2
				c4,8.2,9.4,15.6,14.2,23.2c0.8,1.3,1.6,2.1,1.8,2.3l-3.5,2.1c-2.1-4-4.3-7.7-6.5-11.3c-7.7,5.3-16.4,10.1-23.9,15.7l-2.7-4.2
				c8.1-4.6,16.6-9.9,24.5-14.9c-3.2-5-5.6-8.8-7.3-10.9L818,265.2L818,265.2z M837.9,304.7c2.1,5.3,4.1,9.7,5.7,13l-3.2,1.4
				c-1.1-3-2.6-6.6-3.9-9.7l-10.6,3.9c1.3,3.6,2.6,6.4,3.5,8.2l-3.5,1.3c-0.8-2.6-1.9-6-2.9-8.5l-10,3.7c1.3,3.3,2.4,7.1,3.9,10.2
				l-3.6,1.5c-1-2.8-2.8-7.6-5.1-14.2C817.9,311.9,828.2,308,837.9,304.7L837.9,304.7z M839.6,334.4c5.5-0.3,10.6,7.1,12.4,11.3
				l-3.5,1.5c-1-2.9-4.2-9-8.2-8.5c-4.3,0.6-3.5,12.3-9.3,13.1c-7.1,1-11.5-6.1-14-11.6l3.2-1.6c1,2.8,4.7,9.6,8.4,9.1
				C833.8,347,832.5,334.9,839.6,334.4z M858.1,379.3c-0.2,8.2-0.9,19.4-7,25.4c-4,4-11.4,2-15.1-1.1c-6.8-5.9-9.6-16.6-9.6-25.5
				C837,378.8,847.6,379.3,858.1,379.3L858.1,379.3z M854.6,383.5l-24.2-0.8c0,8.1,5.3,20,14.7,20
				C852.5,402.7,854.6,389.7,854.6,383.5z M826.8,408c0.8,0.5,2.8,1.6,5.2,2.9c3.8,2,26,14.5,26,15c-8.3,4.6-17.7,9.6-26.3,13.6
				c-2.2,1-4.2,2.2-5.9,3.1l-2.3-4c2.3-0.9,5.2-2.6,7.4-3.6c1.6-0.7,3.1-1.5,4.4-2.2v-15.9c-1.9-0.8-3.2-1.7-4.2-2
				C827.8,413.5,822.4,412.4,826.8,408L826.8,408L826.8,408z M838.4,418.7c0,4.1,0.1,8.7,0.1,12.9c4-2,8.6-4.4,12.6-6.1
				C846.9,423.7,842.3,420.8,838.4,418.7z M855,446.5c-1.8,6.6-3.7,14.7-4.4,21.7c-0.3,2.3-0.8,5.5-0.8,7.9l-4-0.7
				c1.2-4.4,2.1-8.7,2.8-12.7c-9.3-1.4-18.9-3.5-28.3-4.4l0.8-4.9c9.2,2,18.9,3.7,28.1,5.3c1.1-5.9,1.7-10.3,1.8-13L855,446.5
				L855,446.5z M818.5,470c2.9,3.7,23.7,25.4,23.7,27.2c-5.9,1.1-12.5,2-18.5,2.7c-5.7,0.7-11.6,1.6-17.3,2.6l-0.9-4.5
				c0.5-0.1,1.7-0.4,3.3-0.5c2.9-0.3,6.6-0.8,9.8-1.2l5.2-15.1c-1.5-1.3-2.7-2.5-3.4-3.2c-2.1-1.9-6.8-4.8-4-6.6
				C816.7,471.2,818.2,470,818.5,470z M825.9,483.9c-1.3,4-2.7,8.2-4.1,12.1c4.5-0.4,9.4-0.9,13.9-1.7
				C832.5,491.2,829,487.2,825.9,483.9z M793.3,521.9l8.1-12.7c8.6,5.8,17.8,11.1,26.8,16.2l-2.4,4c-7.7-5.2-16.2-10.1-24.2-14.9
				c-2.6,4.5-4.5,7.7-5.3,9.3L793.3,521.9L793.3,521.9z M803,560.7c10.2-11.7-8.2-30.6-19.4-18.3C773.5,553.6,791.6,573.7,803,560.7
				z M805.5,563c-8.8,11.1-25.6,4.9-28.3-8.2c-3.8-17.8,20.2-29.4,30-11.7C810.7,549.2,809.9,557.5,805.5,563z M772.4,595
				c2.9-4.5,7.2-22.5,0.5-25.1c-8-3.1-17.1,1.1-19.3,7.8l5,4.3c3.5,2.9,3.9,1.9,0.6,5.7c-3.4-2.8-6.6-6-10.1-8.6
				c3.5-7.6,10.9-16,20.2-15.4c2.3,0.1,4.5,1.4,6.3,2.7c8.1,5.6,3.8,23.7,0.5,30.5L772.4,595z M758.6,609.1l-3.5,2.8
				c-1.5-1.8-2.9-4-4.3-5.6c-5.3-5.9-10.4-13.1-15.7-19l3.5-2.8c3.5,4.4,6.1,7.9,7.7,9.8c2.3,2.8,5.3,6.3,7.6,9.2
				C756,606.1,757.7,608,758.6,609.1L758.6,609.1z M730.1,594.9c0,3.5,0.4,36,0.2,36c-10.3-6.2-20.1-13.6-30.6-19.4
				c2.2-4,1.2-4.6,5-2.3c2.5,1.6,5.6,3.8,8.2,5.6l13.7-8c-0.1-1.9-0.7-12.1-0.9-12.4C726.2,594.3,730.1,594.8,730.1,594.9
				L730.1,594.9z M726.6,610.3c-3.5,1.9-7.5,4.5-11,6.4c3.8,2.6,7.7,5.6,11.6,7.9c-0.5-4.5-0.5-10-0.5-14.5L726.6,610.3z
				 M701.9,644.1c-5.3,2-9.8,4-13.1,5.5l-1.3-3.3c3.1-0.9,6.6-2.5,9.8-3.6l-3.7-10.7c-3.6,1.3-6.4,2.5-8.2,3.4
				c-1.7-4.4-1.5-3.5,2.9-4.8c1.9-0.5,3.5-1.1,4.4-1.4L689,619c-2.3,0.8-4.1,1.3-5.1,1.6c-1.7,0.5-3.5,1.6-5.2,2l-1.4-3.6
				c2.8-0.9,7.7-2.6,14.4-5c0.4,1.3,1.3,3.5,2,6C696.2,627.8,699.3,636.3,701.9,644.1z M659.4,659.3l-4,0.6
				c-0.4-6.4-1.3-13.5-2.9-19.6c-1.3-4.9-5.4-8.3-10.8-7.7c-10.4,1.1-8,14.1-7.2,21.1c0.1,1.3,0.8,4.6,1.7,9.6l-4.4,0.6
				c-1.4-11-6.9-32.6,9.3-34.6C657.7,627.3,657.9,648.4,659.4,659.3L659.4,659.3z M614,668.3L614,668.3l-23.9-26.7l-1.2,23.8l-4-0.3
				c0.1-1.9,0.4-4,0.5-6.6c0.5-8.5,1.3-17.3,2-25.8c7.5,9.2,16.4,17.8,24.1,26.8l1.2-25.6l4.4,0.5L614,668.3L614,668.3z
				 M572.1,664.6l-4.5-0.2c0.5-10.5,1.3-21.1,1.1-31.6l4.4,0.2C572.7,643.5,572.1,654.1,572.1,664.6L572.1,664.6z M553.5,661.3
				l-4.3,1.2c-1.5-9.2-3.8-18.9-5.7-28c-6.1,7.2-13,14.6-18.9,22l-3.1-3.1c5.2-5.7,10.9-11.6,15.9-17.3c0.5-0.6,8.5-9.3,8.6-9.3
				c1.6,8.7,4,17.8,5.7,26.3C552,655.1,553.5,659.2,553.5,661.3L553.5,661.3z M507.8,651.2c-5.3-2.3-9.8-3.9-13.3-5.1l1.3-3.4
				c3,1.5,6.4,2.8,9.5,4.2l4.8-10.3c-3.5-1.6-6.4-2.6-8.2-3.4l1.5-3.4c2.6,1.2,5.5,2.8,8.1,4l4.5-9.7c-2.1-1-3.9-1.9-4.8-2.4
				c-1.5-0.7-3.6-1.4-5.1-2.2l1.5-3.6c2.6,1.3,7.3,3.5,13.7,6.5C516.8,632,512,641.7,507.8,651.2L507.8,651.2z M479.7,602.2
				c1.4,6.4,3.1,13.1,4.4,19.6c-3.5,0.1-8.2,0.9-9.8,4.3c-1.9,4.4,4.1,8,7.1,9.3c2.4-5.2,4.5-9.3,5.6-11.8c2-4.5,4.4-9.8,6.3-14.3
				l4,1.9c-4.4,9.4-8.8,19.3-13.3,28.7c-5.9-2.8-22.6-12.2-10.1-18.9c1.5-0.8,3.6-1.4,5.6-1.6c-1-4.7-2.4-10.2-4-16.2L479.7,602.2
				L479.7,602.2z M457.6,614.6c-3,4-12.6,2.3-16.7,0.4l1.3-3.5c2.8,1.4,9.6,3.6,11.9,0.3c2.4-3.5-5.9-11.1-2.4-15.9
				c4.2-5.7,12.5-3.6,18.1-1.3l-1.2,3.4c-2.9-1.3-10-3.8-12.4-0.7C453.2,601.4,461.8,608.8,457.6,614.6L457.6,614.6z M430.1,606.1
				c-3.8-2.9-4-1.9-1.3-5.6c5.3-7.4,11.4-14.6,16.7-22.3l3.5,2.6c-3.2,4.2-7,9.3-10.4,13.5C436,597.8,432.8,602.3,430.1,606.1z
				 M416.3,595.2c-2.4-3.6-15.8-20.2-20.1-22.3l3-2.8c2.7,3.5,5.6,6.9,8.3,10c1.2-1.1,2.7-2.5,4.4-4c5.5-4.8,11.4-10.2,16.4-15.6
				l3.4,3.7c-7.3,5.9-14.5,12.6-21.5,18.9c4,4.4,7,7.6,9.1,9.3L416.3,595.2z M417.4,554.1c-5.2,0.4-11.2,0.8-16.3,1
				c-1.5,0-19.5,1.2-19.7,1c0.8-1.5,2.2-3.8,3.5-6.3c3.6-6.4,7.6-13,11.2-19.4c1.2-2.1,2.4-4.2,3.2-5.9c3.9,1.9,4.6,1.2,2.4,5
				c-1.6,2.6-3.5,5.7-5.1,8.4l8.7,13.4c1.8-0.3,12.1-1.4,12.3-1.6C417.9,550.4,417.5,553.4,417.4,554.1L417.4,554.1L417.4,554.1z
				 M401.9,551.4c-2.1-3.6-4.9-7.2-7-10.7c-2.4,3.8-5.5,8.1-7.2,12c4.3-0.6,9.9-1.3,14.4-1.3H401.9z M373.8,541.8
				c-0.6-1.3-2.4-4.7-5.1-9.5c-1.7-2.9-4-6.8-5.8-9.7c-1.1-1.9-3.6-4.7-4.5-6.6l3.5-2c2,4,4.1,7.8,6.3,11.4c3.7-2.3,8-5,11.7-7.2
				c4-2.4,8.6-5.4,12.5-8.1l2.6,4.2c-8.2,4.4-16.7,9.6-24.7,14.5c3.1,5.1,5.5,8.8,7.2,10.9L373.8,541.8z M354.9,503.3l-1.6-4.1
				c4.5-1.9,9.5-3.4,14.1-5c6.9-2.5,12-5,15.5-6.4l1.5,4c-7.6,2.8-15.2,6-22.7,8.8C358.4,501.7,356.2,502.8,354.9,503.3L354.9,503.3
				z M357.9,485.2c-4.8,1.8-11.9-4.7-14.4-8.4l2.9-2.3c1.3,2.2,3,4.1,4.7,5.4c9.3,7.2,5.8-11.3,11.6-13.5c6.6-2.4,12.6,3.5,16,8.4
				L376,477c-1.9-2.8-10.7-12.2-12.6-4.4C362.5,476.8,362.8,483.4,357.9,485.2L357.9,485.2z M338,442.7l-0.7-4.4l14.1-1.9l-4.1-20
				l-13.1,2.3l-0.8-4.5c10.4-1.1,21-3,31.3-4.8l0.7,4.5c-5,0.5-10.2,1.3-15.1,2l4.2,20l14.1-2.4l0.7,4.2c-2.8,0.4-5.7,1.1-8.6,1.4
				c-6,0.8-12,1.9-18.1,2.8C340.7,442.1,339,442.5,338,442.7L338,442.7z M335.3,393.3c0.1-5.7-0.2-10.5-0.4-14.2l3.5-0.2
				c-0.1,3.2-0.1,7.2-0.1,10.4l11.4,0.4c0-3.9-0.1-6.9-0.3-8.9h3.7c0,2.8-0.4,6.1-0.4,9l10.7,0.4c0.1-3.5,0.3-7.4,0.3-10.9l3.9-0.1
				c-0.1,2.9-0.3,8.1-0.5,15.1c-8.8-0.5-17.9-0.5-26.8-0.9C338.5,393.4,336.8,393.4,335.3,393.3L335.3,393.3z M372.9,353.5l-4,14.5
				c-10.1-2.9-20.2-5.4-30.3-7.7l1.1-4.5c8.8,2.9,18.3,5,27.4,7.2c1.3-5,2.1-8.6,2.4-10.4L372.9,353.5z M352.9,340.8
				c-5-1.2-7-10.7-6.9-15.2l3.7-0.1c-0.2,3.1,0.4,10.2,4.3,11c4,0.8,7.6-9.5,13.7-8.3c7,1.3,8.2,10.2,8.3,16.1l-3.5,0.3
				c0.1-3-0.6-10.9-4.2-11.7C362.8,331.6,360,342.4,352.9,340.8L352.9,340.8z M353.6,306.8l1.9-4c9.6,4.4,18.7,9.5,28.7,13.4l-1.9,4
				c-4.9-2.3-10.4-5.1-15.3-7.3C362.7,310.8,357.9,308.9,353.6,306.8z M359.6,289.1L359.6,289.1l33.9-11.5L372,267.2l1.9-3.5
				c4.2,1.9,8.9,4.7,13,6.7c1.3,0.7,15.7,8.2,15.7,8.2c-3.3,1.2-34.1,11.7-34.1,11.7l23.1,11.1l-2.2,3.9L359.6,289.1L359.6,289.1z
				 M400.4,235c-2.4,4.1-5.2,22.7,1.7,24.9c6.6,2.1,12.5,0.1,16-4.6c0.8-1.1,2.1-3.4,2.5-4.8c-2.8-2-5.7-4.5-8.8-6.2l2.4-3.3
				c3.5,2.3,7.5,5.2,10.8,7.7c-2.8,7.9-9.4,17.1-18.8,17.1c-7.9,0-11.7-7.5-12.4-14.3c-0.6-5.4,0.2-11.6,2.7-18.1L400.4,235
				L400.4,235z M412.9,218l3.4-3c6.7,7.8,14,16.1,21.1,23.6l-3.3,2.9c-3.6-4.1-6.6-7.5-8.2-9.4C421.6,227.4,417.1,222.5,412.9,218
				L412.9,218z M426.6,205.3c4.1-4,7.4-7.5,9.9-10.3l2.6,2.5c-2.4,2.1-5.2,5-7.6,7.2l7.6,8.4c2.8-2.6,4.9-4.9,6.3-6.3l2.5,2.7
				c-2.2,1.7-4.6,4-6.8,5.9l7.2,7.9c1.8-1.6,3.3-2.8,4-3.5c1.2-1.2,2.8-2.8,4-3.8l2.7,2.7c-2.2,2-6,5.5-11.3,10.2
				c-4.7-5.6-10.3-11.4-15.1-16.8C430.9,210,428.6,207.5,426.6,205.3L426.6,205.3z M451.9,184.5L451.9,184.5l34.8,8.8l-12.5-20.5
				l3.6-1.9c4,6.6,7.8,13.9,11.6,20.5c0.3,0.5,4.6,7.4,4.4,7.7c-6.5-1.3-13.1-3.4-19.5-4.8c-1.6-0.3-15.4-4-15.4-4l13.3,21.9l-3.9,2
				L451.9,184.5z M496,173c-1.6-5.1,4.9-12,8.7-14.2l2.2,3c-2.6,1.4-8.2,6-6.8,9.7c1.3,3.9,12.5,1,14.6,6.7
				c2.4,6.7-3.8,12.5-8.8,15.9l-2.1-2.9c2.4-1.5,8.7-6.4,7.3-10C509.3,176.3,498.2,179.7,496,173L496,173z M518.3,154.8l4.1-1.5
				c1.3,3.3,2.6,7.4,3.7,10.8c0.3,1.3,0.8,2.7,1,3.4c2.4,6.9,4.7,12.1,6.1,15.6l-4.1,1.5c-2.5-7.7-5.6-15.4-8.3-23
				C519.7,158.5,518.7,156,518.3,154.8L518.3,154.8z M541.3,158.1c-0.3-5.3,7.1-10.7,11.3-12.4l1.5,3.5c-2.9,1-9,4.3-8.5,8.2
				c0.3,2.4,8.4,4.6,9.9,5.4c5,2.4,3.7,8.7,0.3,12.4c-1.8,2-4.9,3.9-8.7,5.6l-1.6-3.2c5.5-1.9,14.1-9.8,4.9-12.3
				C547.4,164.5,541.5,162,541.3,158.1L541.3,158.1z"/>
			<g id="outer-accessory-1">
				<path id="outer-accessory-1.3" class="st9" d="M614.6,162.6c1.8,2.2,2.2,3.6,1.7,4.5s-1.8,1.4-4.6,0.9
					c-5.1-2.3-10.1-4.8-14.9-7.5c-4.8-2.8-9.5-5.9-14-9.3c-2.1-2.3-2.5-3.7-2.1-4.5c0.5-0.8,1.8-1.2,4.8-0.6
					c5.1,2.2,10.2,4.6,15,7.4C605.4,156.2,610,159.3,614.6,162.6z"/>
				<path id="outer-accessory-1.2" class="st9" d="M585.3,167.7c-2.8,0.5-4.2,0.1-4.8-0.8c-0.6-0.9-0.3-2.2,1.5-4.4
					c4.6-3.3,9.2-6.4,14-9.2s9.9-5.2,15-7.5c3.1-0.6,4.4-0.4,4.9,0.5c0.5,0.8,0.1,2.1-1.9,4.4c-4.5,3.3-9.1,6.5-13.9,9.3
					C595.4,162.8,590.4,165.3,585.3,167.7L585.3,167.7z"/>
				<path id="outer-accessory-1.1" class="st9" d="M595.2,139.7c1-2.7,2-3.7,3.1-3.7c1,0,2.1,0.8,3.1,3.5c0.5,5.6,0.9,11.1,0.9,16.7
					c0,5.6-0.4,11.2-1.1,16.8c-1,3-1.9,4-2.9,4s-1.9-1-2.9-3.9c-0.7-5.6-1.1-11.1-1.1-16.7C594.4,150.8,594.7,145.3,595.2,139.7
					L595.2,139.7z"/>
			</g>
		</g>
	</g>
</g>
</svg>
